<svg t="1670143044165" class="icon" viewBox="0 0 1024 1024" version="1.1" xmlns="http://www.w3.org/2000/svg" p-id="7156" width="200" height="200">
  <path d="M699.392 865.28H331.776c-41.984 0-75.776-34.816-75.776-76.8V231.424c0-43.008 33.792-76.8 75.776-76.8h367.616c41.984 0 75.776 34.816 75.776 76.8V788.48c0 41.984-33.792 76.8-75.776 76.8zM331.776 163.84c-35.84 0-65.536 30.72-65.536 67.584V788.48c0 36.864 29.696 66.56 65.536 66.56h367.616c35.84 0 65.536-29.696 65.536-66.56V231.424c0-36.864-29.696-66.56-65.536-66.56H331.776z" fill="#231F20" p-id="7157"></path>
  <path d="M651.264 358.4H474.112c-3.072 0-5.12-2.048-5.12-5.12s2.048-5.12 5.12-5.12h177.152c3.072 0 5.12 2.048 5.12 5.12s-2.048 5.12-5.12 5.12zM599.04 431.104H474.112c-3.072 0-5.12-2.048-5.12-5.12s2.048-5.12 5.12-5.12h124.928c3.072 0 5.12 2.048 5.12 5.12s-2.048 5.12-5.12 5.12zM382.976 865.28c-3.072 0-5.12-2.048-5.12-5.12V158.72c0-3.072 2.048-5.12 5.12-5.12s5.12 2.048 5.12 5.12V860.16c0 3.072-3.072 5.12-5.12 5.12z" fill="#231F20" p-id="7158"></path>
</svg>
